<mxfile host="" modified="2020-07-08T06:32:25.218Z" agent="5.0 (X11; Linux x86_64) AppleWebKit/537.36 (KHTML, like Gecko) Code/1.46.1 Chrome/78.0.3904.130 Electron/7.3.1 Safari/537.36" etag="bcJsvX4iSawMqjIy1rF0" version="13.1.3">
    <diagram id="xOgkuKXMtd71amgxeQ_m" name="Page-1">
        <mxGraphModel dx="1393" dy="780" grid="1" gridSize="10" guides="1" tooltips="1" connect="1" arrows="1" fold="1" page="0" pageScale="1" pageWidth="850" pageHeight="1100" background="none" math="0" shadow="0">
            <root>
                <mxCell id="0"/>
                <mxCell id="1" parent="0"/>
                <mxCell id="2" value="nova-api" style="shape=umlLifeline;perimeter=lifelinePerimeter;whiteSpace=wrap;html=1;container=1;collapsible=0;recursiveResize=0;outlineConnect=0;" parent="1" vertex="1">
                    <mxGeometry x="-50" y="40" width="100" height="580" as="geometry"/>
                </mxCell>
                <mxCell id="3" value="1" style="html=1;points=[];perimeter=orthogonalPerimeter;" parent="2" vertex="1">
                    <mxGeometry x="45" y="90" width="10" height="120" as="geometry"/>
                </mxCell>
                <mxCell id="4" value="http:migrate/resize" style="html=1;verticalAlign=bottom;endArrow=block;entryX=0;entryY=0;" parent="2" target="3" edge="1">
                    <mxGeometry y="10" relative="1" as="geometry">
                        <mxPoint x="-25" y="90" as="sourcePoint"/>
                        <mxPoint as="offset"/>
                    </mxGeometry>
                </mxCell>
                <mxCell id="5" value="http:202" style="html=1;verticalAlign=bottom;endArrow=open;dashed=1;endSize=8;exitX=0;exitY=0.95;" parent="2" source="3" edge="1">
                    <mxGeometry relative="1" as="geometry">
                        <mxPoint x="-25" y="204" as="targetPoint"/>
                    </mxGeometry>
                </mxCell>
                <mxCell id="59" value="8" style="html=1;points=[];perimeter=orthogonalPerimeter;" parent="2" vertex="1">
                    <mxGeometry x="45" y="380" width="10" height="60" as="geometry"/>
                </mxCell>
                <mxCell id="60" value="http:confirm_resize" style="html=1;verticalAlign=bottom;endArrow=block;entryX=0;entryY=0;" parent="2" target="59" edge="1">
                    <mxGeometry relative="1" as="geometry">
                        <mxPoint x="-25" y="380" as="sourcePoint"/>
                    </mxGeometry>
                </mxCell>
                <mxCell id="61" value="http:202" style="html=1;verticalAlign=bottom;endArrow=open;dashed=1;endSize=8;exitX=0;exitY=0.95;" parent="2" source="59" edge="1">
                    <mxGeometry relative="1" as="geometry">
                        <mxPoint x="-25" y="437" as="targetPoint"/>
                    </mxGeometry>
                </mxCell>
                <mxCell id="62" value="rpc:cast:confirm_resize" style="html=1;verticalAlign=bottom;startArrow=oval;startFill=1;endArrow=block;startSize=8;" parent="2" target="11" edge="1">
                    <mxGeometry width="60" relative="1" as="geometry">
                        <mxPoint x="60" y="400" as="sourcePoint"/>
                        <mxPoint x="120" y="390" as="targetPoint"/>
                        <Array as="points">
                            <mxPoint x="260" y="400"/>
                        </Array>
                    </mxGeometry>
                </mxCell>
                <mxCell id="64" value="10" style="html=1;points=[];perimeter=orthogonalPerimeter;" parent="2" vertex="1">
                    <mxGeometry x="45" y="470" width="10" height="60" as="geometry"/>
                </mxCell>
                <mxCell id="65" value="http:revert_resize" style="html=1;verticalAlign=bottom;endArrow=block;entryX=0;entryY=0;" parent="2" target="64" edge="1">
                    <mxGeometry relative="1" as="geometry">
                        <mxPoint x="-25" y="470" as="sourcePoint"/>
                    </mxGeometry>
                </mxCell>
                <mxCell id="66" value="return" style="html=1;verticalAlign=bottom;endArrow=open;dashed=1;endSize=8;exitX=0.3;exitY=1.017;exitDx=0;exitDy=0;exitPerimeter=0;" parent="2" source="64" edge="1">
                    <mxGeometry relative="1" as="geometry">
                        <mxPoint x="-30" y="530" as="targetPoint"/>
                    </mxGeometry>
                </mxCell>
                <mxCell id="67" value="rpc:cast:revert_resize" style="html=1;verticalAlign=bottom;startArrow=oval;startFill=1;endArrow=block;startSize=8;" parent="2" target="12" edge="1">
                    <mxGeometry width="60" relative="1" as="geometry">
                        <mxPoint x="50" y="490" as="sourcePoint"/>
                        <mxPoint x="110" y="490" as="targetPoint"/>
                    </mxGeometry>
                </mxCell>
                <mxCell id="6" value="nova-conductor" style="shape=umlLifeline;perimeter=lifelinePerimeter;whiteSpace=wrap;html=1;container=1;collapsible=0;recursiveResize=0;outlineConnect=0;" parent="1" vertex="1">
                    <mxGeometry x="108" y="40" width="100" height="580" as="geometry"/>
                </mxCell>
                <mxCell id="16" value="2" style="html=1;points=[];perimeter=orthogonalPerimeter;" parent="6" vertex="1">
                    <mxGeometry x="45" y="100" width="10" height="100" as="geometry"/>
                </mxCell>
                <mxCell id="10" value="nova-scheduler" style="shape=umlLifeline;perimeter=lifelinePerimeter;whiteSpace=wrap;html=1;container=1;collapsible=0;recursiveResize=0;outlineConnect=0;" parent="1" vertex="1">
                    <mxGeometry x="277" y="40" width="100" height="580" as="geometry"/>
                </mxCell>
                <mxCell id="20" value="3" style="html=1;points=[];perimeter=orthogonalPerimeter;" parent="10" vertex="1">
                    <mxGeometry x="45" y="120" width="10" height="50" as="geometry"/>
                </mxCell>
                <mxCell id="55" value="7" style="html=1;points=[];perimeter=orthogonalPerimeter;" parent="10" vertex="1">
                    <mxGeometry x="43" y="260" width="10" height="40" as="geometry"/>
                </mxCell>
                <mxCell id="11" value="nova-compute&lt;br&gt;src" style="shape=umlLifeline;perimeter=lifelinePerimeter;whiteSpace=wrap;html=1;container=1;collapsible=0;recursiveResize=0;outlineConnect=0;" parent="1" vertex="1">
                    <mxGeometry x="441" y="40" width="100" height="580" as="geometry"/>
                </mxCell>
                <mxCell id="27" value="5" style="html=1;points=[];perimeter=orthogonalPerimeter;" parent="11" vertex="1">
                    <mxGeometry x="45" y="190" width="10" height="60" as="geometry"/>
                </mxCell>
                <mxCell id="34" value="rpc:cast:finish_resize" style="html=1;verticalAlign=bottom;startArrow=oval;startFill=1;endArrow=block;startSize=8;" parent="11" target="12" edge="1">
                    <mxGeometry x="-0.056" width="60" relative="1" as="geometry">
                        <mxPoint x="50" y="240" as="sourcePoint"/>
                        <mxPoint x="110" y="240" as="targetPoint"/>
                        <mxPoint as="offset"/>
                    </mxGeometry>
                </mxCell>
                <mxCell id="63" value="9" style="html=1;points=[];perimeter=orthogonalPerimeter;" parent="11" vertex="1">
                    <mxGeometry x="45" y="380" width="10" height="60" as="geometry"/>
                </mxCell>
                <mxCell id="69" value="12" style="html=1;points=[];perimeter=orthogonalPerimeter;" parent="11" vertex="1">
                    <mxGeometry x="45" y="500" width="10" height="50" as="geometry"/>
                </mxCell>
                <mxCell id="12" value="nova-compute&lt;br&gt;dest" style="shape=umlLifeline;perimeter=lifelinePerimeter;whiteSpace=wrap;html=1;container=1;collapsible=0;recursiveResize=0;outlineConnect=0;" parent="1" vertex="1">
                    <mxGeometry x="620" y="40" width="100" height="580" as="geometry"/>
                </mxCell>
                <mxCell id="23" value="4" style="html=1;points=[];perimeter=orthogonalPerimeter;" parent="12" vertex="1">
                    <mxGeometry x="45" y="160" width="10" height="50" as="geometry"/>
                </mxCell>
                <mxCell id="29" value="6" style="html=1;points=[];perimeter=orthogonalPerimeter;" parent="12" vertex="1">
                    <mxGeometry x="45" y="230" width="10" height="50" as="geometry"/>
                </mxCell>
                <mxCell id="68" value="11" style="html=1;points=[];perimeter=orthogonalPerimeter;" parent="12" vertex="1">
                    <mxGeometry x="45" y="470" width="10" height="80" as="geometry"/>
                </mxCell>
                <mxCell id="18" value="" style="html=1;verticalAlign=bottom;startArrow=oval;startFill=1;endArrow=block;startSize=8;exitX=0.9;exitY=0.213;exitDx=0;exitDy=0;exitPerimeter=0;" parent="1" edge="1">
                    <mxGeometry y="20" width="60" relative="1" as="geometry">
                        <mxPoint x="5" y="147.03999999999996" as="sourcePoint"/>
                        <mxPoint x="150" y="148" as="targetPoint"/>
                        <mxPoint as="offset"/>
                    </mxGeometry>
                </mxCell>
                <mxCell id="19" value="rpc:cast:migrate_server" style="edgeLabel;html=1;align=center;verticalAlign=middle;resizable=0;points=[];" parent="18" vertex="1" connectable="0">
                    <mxGeometry x="-0.1662" y="-3" relative="1" as="geometry">
                        <mxPoint y="-20.04" as="offset"/>
                    </mxGeometry>
                </mxCell>
                <mxCell id="21" value="rpc:call:select_destinations" style="html=1;verticalAlign=bottom;startArrow=oval;startFill=1;endArrow=block;startSize=8;exitX=1.2;exitY=0.28;exitDx=0;exitDy=0;exitPerimeter=0;entryX=0.1;entryY=0.16;entryDx=0;entryDy=0;entryPerimeter=0;" parent="1" source="16" target="20" edge="1">
                    <mxGeometry x="-0.0059" y="5" width="60" relative="1" as="geometry">
                        <mxPoint x="420" y="400" as="sourcePoint"/>
                        <mxPoint x="480" y="400" as="targetPoint"/>
                        <mxPoint as="offset"/>
                    </mxGeometry>
                </mxCell>
                <mxCell id="22" value="return:hosts" style="html=1;verticalAlign=bottom;endArrow=open;dashed=1;endSize=8;exitX=-0.3;exitY=0.8;exitDx=0;exitDy=0;exitPerimeter=0;" parent="1" source="20" edge="1">
                    <mxGeometry relative="1" as="geometry">
                        <mxPoint x="470" y="400" as="sourcePoint"/>
                        <mxPoint x="160" y="200" as="targetPoint"/>
                    </mxGeometry>
                </mxCell>
                <mxCell id="24" value="rpc:cast:prep_resize" style="html=1;verticalAlign=bottom;startArrow=oval;startFill=1;endArrow=block;startSize=8;exitX=0.9;exitY=0.81;exitDx=0;exitDy=0;exitPerimeter=0;" parent="1" source="16" edge="1">
                    <mxGeometry x="0.1033" y="7" width="60" relative="1" as="geometry">
                        <mxPoint x="400" y="400" as="sourcePoint"/>
                        <mxPoint x="670" y="217" as="targetPoint"/>
                        <mxPoint as="offset"/>
                    </mxGeometry>
                </mxCell>
                <mxCell id="26" value="rpc:cast:resize_instance" style="html=1;verticalAlign=bottom;startArrow=oval;startFill=1;endArrow=block;startSize=8;exitX=0;exitY=0.78;exitDx=0;exitDy=0;exitPerimeter=0;" parent="1" source="23" target="11" edge="1">
                    <mxGeometry width="60" relative="1" as="geometry">
                        <mxPoint x="530" y="270" as="sourcePoint"/>
                        <mxPoint x="580" y="270" as="targetPoint"/>
                    </mxGeometry>
                </mxCell>
                <mxCell id="56" value="rpc:cast:update_instance_info" style="html=1;verticalAlign=bottom;startArrow=oval;startFill=1;endArrow=block;startSize=8;exitX=0;exitY=0.9;exitDx=0;exitDy=0;exitPerimeter=0;" parent="1" source="29" target="10" edge="1">
                    <mxGeometry x="0.2112" y="-5" width="60" relative="1" as="geometry">
                        <mxPoint x="530" y="430" as="sourcePoint"/>
                        <mxPoint x="590" y="430" as="targetPoint"/>
                        <mxPoint as="offset"/>
                    </mxGeometry>
                </mxCell>
                <mxCell id="70" value="rpc:cast:finish_revert_resize" style="html=1;verticalAlign=bottom;startArrow=oval;startFill=1;endArrow=block;startSize=8;entryX=0.2;entryY=0.82;entryDx=0;entryDy=0;entryPerimeter=0;" parent="1" target="69" edge="1">
                    <mxGeometry width="60" relative="1" as="geometry">
                        <mxPoint x="665" y="580" as="sourcePoint"/>
                        <mxPoint x="486" y="580" as="targetPoint"/>
                    </mxGeometry>
                </mxCell>
                <mxCell id="76" value="" style="edgeStyle=orthogonalEdgeStyle;rounded=0;orthogonalLoop=1;jettySize=auto;html=1;" parent="1" source="74" target="75" edge="1">
                    <mxGeometry relative="1" as="geometry"/>
                </mxCell>
                <mxCell id="121" value="" style="edgeStyle=orthogonalEdgeStyle;rounded=0;orthogonalLoop=1;jettySize=auto;html=1;exitX=1;exitY=0.5;exitDx=0;exitDy=0;entryX=0;entryY=0.5;entryDx=0;entryDy=0;" parent="1" source="120" target="74" edge="1">
                    <mxGeometry relative="1" as="geometry">
                        <mxPoint x="-130" y="880" as="sourcePoint"/>
                        <mxPoint x="-110" y="840" as="targetPoint"/>
                    </mxGeometry>
                </mxCell>
                <mxCell id="74" value="1&lt;br&gt;vm_state:active/stopped&lt;br&gt;task_state:resize_prep" style="ellipse;whiteSpace=wrap;html=1;" parent="1" vertex="1">
                    <mxGeometry x="-32" y="800" width="140" height="80" as="geometry"/>
                </mxCell>
                <mxCell id="120" value="0/9/12&lt;br&gt;vm_state:active/stopped&lt;br&gt;task_state:None" style="ellipse;whiteSpace=wrap;html=1;" parent="1" vertex="1">
                    <mxGeometry x="-200" y="800" width="140" height="80" as="geometry"/>
                </mxCell>
                <mxCell id="78" value="" style="edgeStyle=orthogonalEdgeStyle;rounded=0;orthogonalLoop=1;jettySize=auto;html=1;" parent="1" source="75" target="79" edge="1">
                    <mxGeometry relative="1" as="geometry">
                        <mxPoint x="280" y="840" as="targetPoint"/>
                    </mxGeometry>
                </mxCell>
                <mxCell id="75" value="5&lt;br&gt;vm_state:active/stopped&lt;br&gt;task_state:resize_migrating" style="ellipse;whiteSpace=wrap;html=1;" parent="1" vertex="1">
                    <mxGeometry x="140" y="800" width="160" height="80" as="geometry"/>
                </mxCell>
                <mxCell id="82" value="" style="edgeStyle=orthogonalEdgeStyle;rounded=0;orthogonalLoop=1;jettySize=auto;html=1;" parent="1" source="79" target="81" edge="1">
                    <mxGeometry relative="1" as="geometry"/>
                </mxCell>
                <mxCell id="79" value="5&lt;br&gt;vm_state:active/stopped&lt;br&gt;task_state:resize_migrated" style="ellipse;whiteSpace=wrap;html=1;" parent="1" vertex="1">
                    <mxGeometry x="320" y="800" width="160" height="80" as="geometry"/>
                </mxCell>
                <mxCell id="84" value="" style="edgeStyle=orthogonalEdgeStyle;rounded=0;orthogonalLoop=1;jettySize=auto;html=1;" parent="1" source="81" target="83" edge="1">
                    <mxGeometry relative="1" as="geometry"/>
                </mxCell>
                <mxCell id="81" value="6&lt;br&gt;vm_state:active/stopped&lt;br&gt;task_state:resize_finish" style="ellipse;whiteSpace=wrap;html=1;" parent="1" vertex="1">
                    <mxGeometry x="510" y="800" width="139" height="80" as="geometry"/>
                </mxCell>
                <mxCell id="86" value="confirm_resize" style="edgeStyle=orthogonalEdgeStyle;rounded=0;orthogonalLoop=1;jettySize=auto;html=1;entryX=0.5;entryY=0;entryDx=0;entryDy=0;exitX=0.5;exitY=0;exitDx=0;exitDy=0;" parent="1" source="83" target="120" edge="1">
                    <mxGeometry x="0.011" y="-10" relative="1" as="geometry">
                        <mxPoint x="740" y="750" as="targetPoint"/>
                        <mxPoint as="offset"/>
                    </mxGeometry>
                </mxCell>
                <mxCell id="88" value="revert_resize" style="edgeStyle=orthogonalEdgeStyle;rounded=0;orthogonalLoop=1;jettySize=auto;html=1;entryX=1;entryY=0.5;entryDx=0;entryDy=0;exitX=0.5;exitY=1;exitDx=0;exitDy=0;" parent="1" source="83" target="87" edge="1">
                    <mxGeometry relative="1" as="geometry"/>
                </mxCell>
                <mxCell id="83" value="6&lt;br&gt;vm_state:resized&lt;br&gt;task_state:None" style="ellipse;whiteSpace=wrap;html=1;" parent="1" vertex="1">
                    <mxGeometry x="680" y="800" width="120" height="80" as="geometry"/>
                </mxCell>
                <mxCell id="124" value="" style="edgeStyle=orthogonalEdgeStyle;rounded=0;orthogonalLoop=1;jettySize=auto;html=1;entryX=0.5;entryY=1;entryDx=0;entryDy=0;" parent="1" source="87" target="120" edge="1">
                    <mxGeometry relative="1" as="geometry">
                        <mxPoint x="580" y="980" as="targetPoint"/>
                    </mxGeometry>
                </mxCell>
                <mxCell id="87" value="10&lt;br&gt;vm_state:resized&lt;br&gt;task_state:resize_revertng" style="ellipse;whiteSpace=wrap;html=1;" parent="1" vertex="1">
                    <mxGeometry x="208" y="900" width="160" height="80" as="geometry"/>
                </mxCell>
                <mxCell id="91" value="nova-compute&lt;br&gt;src" style="shape=umlLifeline;perimeter=lifelinePerimeter;whiteSpace=wrap;html=1;container=1;collapsible=0;recursiveResize=0;outlineConnect=0;" parent="1" vertex="1">
                    <mxGeometry x="-50" y="1070" width="100" height="300" as="geometry"/>
                </mxCell>
                <mxCell id="94" value="5" style="html=1;points=[];perimeter=orthogonalPerimeter;" parent="91" vertex="1">
                    <mxGeometry x="45" y="80" width="10" height="130" as="geometry"/>
                </mxCell>
                <mxCell id="97" value="http:GET:ports" style="html=1;verticalAlign=bottom;startArrow=oval;startFill=1;endArrow=block;startSize=8;entryX=0.1;entryY=0.113;entryDx=0;entryDy=0;entryPerimeter=0;" parent="91" target="95" edge="1">
                    <mxGeometry width="60" relative="1" as="geometry">
                        <mxPoint x="50" y="90" as="sourcePoint"/>
                        <mxPoint x="110" y="90" as="targetPoint"/>
                    </mxGeometry>
                </mxCell>
                <mxCell id="102" value="http:GET:dhcp_ports" style="html=1;verticalAlign=bottom;startArrow=oval;startFill=1;endArrow=block;startSize=8;entryX=-0.2;entryY=0.9;entryDx=0;entryDy=0;entryPerimeter=0;" parent="91" target="95" edge="1">
                    <mxGeometry width="60" relative="1" as="geometry">
                        <mxPoint x="50" y="150" as="sourcePoint"/>
                        <mxPoint x="110" y="150" as="targetPoint"/>
                    </mxGeometry>
                </mxCell>
                <mxCell id="104" value="http:POST:terminate_connection" style="html=1;verticalAlign=bottom;startArrow=oval;startFill=1;endArrow=block;startSize=8;" parent="91" target="93" edge="1">
                    <mxGeometry width="60" relative="1" as="geometry">
                        <mxPoint x="50" y="190" as="sourcePoint"/>
                        <mxPoint x="110" y="190" as="targetPoint"/>
                    </mxGeometry>
                </mxCell>
                <mxCell id="92" value="neutron-server" style="shape=umlLifeline;perimeter=lifelinePerimeter;whiteSpace=wrap;html=1;container=1;collapsible=0;recursiveResize=0;outlineConnect=0;" parent="1" vertex="1">
                    <mxGeometry x="230" y="1070" width="107" height="300" as="geometry"/>
                </mxCell>
                <mxCell id="95" value="" style="html=1;points=[];perimeter=orthogonalPerimeter;" parent="92" vertex="1">
                    <mxGeometry x="45" y="80" width="10" height="80" as="geometry"/>
                </mxCell>
                <mxCell id="93" value="cinder-api" style="shape=umlLifeline;perimeter=lifelinePerimeter;whiteSpace=wrap;html=1;container=1;collapsible=0;recursiveResize=0;outlineConnect=0;" parent="1" vertex="1">
                    <mxGeometry x="480" y="1070" width="100" height="300" as="geometry"/>
                </mxCell>
                <mxCell id="103" value="" style="html=1;points=[];perimeter=orthogonalPerimeter;" parent="93" vertex="1">
                    <mxGeometry x="45" y="140" width="10" height="80" as="geometry"/>
                </mxCell>
                <mxCell id="98" value="http:GET:networks" style="html=1;verticalAlign=bottom;startArrow=oval;startFill=1;endArrow=block;startSize=8;entryX=0.2;entryY=0.35;entryDx=0;entryDy=0;entryPerimeter=0;" parent="1" source="91" target="95" edge="1">
                    <mxGeometry width="60" relative="1" as="geometry">
                        <mxPoint x="55" y="120" as="sourcePoint"/>
                        <mxPoint x="270" y="1190" as="targetPoint"/>
                    </mxGeometry>
                </mxCell>
                <mxCell id="101" value="http:GET:subnets" style="html=1;verticalAlign=bottom;startArrow=oval;startFill=1;endArrow=block;startSize=8;entryX=0.1;entryY=0.563;entryDx=0;entryDy=0;entryPerimeter=0;" parent="1" source="91" target="95" edge="1">
                    <mxGeometry width="60" relative="1" as="geometry">
                        <mxPoint y="1210" as="sourcePoint"/>
                        <mxPoint x="60" y="1210" as="targetPoint"/>
                    </mxGeometry>
                </mxCell>
                <mxCell id="106" value="nova-compute&lt;br&gt;dest" style="shape=umlLifeline;perimeter=lifelinePerimeter;whiteSpace=wrap;html=1;container=1;collapsible=0;recursiveResize=0;outlineConnect=0;" parent="1" vertex="1">
                    <mxGeometry x="-50" y="1410" width="100" height="300" as="geometry"/>
                </mxCell>
                <mxCell id="107" value="6" style="html=1;points=[];perimeter=orthogonalPerimeter;" parent="106" vertex="1">
                    <mxGeometry x="45" y="50" width="10" height="180" as="geometry"/>
                </mxCell>
                <mxCell id="111" value="neutron-server" style="shape=umlLifeline;perimeter=lifelinePerimeter;whiteSpace=wrap;html=1;container=1;collapsible=0;recursiveResize=0;outlineConnect=0;" parent="1" vertex="1">
                    <mxGeometry x="230" y="1410" width="107" height="300" as="geometry"/>
                </mxCell>
                <mxCell id="112" value="" style="html=1;points=[];perimeter=orthogonalPerimeter;" parent="111" vertex="1">
                    <mxGeometry x="48.5" y="50" width="10" height="160" as="geometry"/>
                </mxCell>
                <mxCell id="113" value="cinder-api" style="shape=umlLifeline;perimeter=lifelinePerimeter;whiteSpace=wrap;html=1;container=1;collapsible=0;recursiveResize=0;outlineConnect=0;" parent="1" vertex="1">
                    <mxGeometry x="480" y="1410" width="100" height="300" as="geometry"/>
                </mxCell>
                <mxCell id="114" value="" style="html=1;points=[];perimeter=orthogonalPerimeter;" parent="113" vertex="1">
                    <mxGeometry x="45" y="180" width="10" height="80" as="geometry"/>
                </mxCell>
                <mxCell id="115" value="http:GET:networks" style="html=1;verticalAlign=bottom;startArrow=oval;startFill=1;endArrow=block;startSize=8;exitX=1.4;exitY=0.605;exitDx=0;exitDy=0;exitPerimeter=0;entryX=-0.25;entryY=0.681;entryDx=0;entryDy=0;entryPerimeter=0;" parent="1" source="107" target="112" edge="1">
                    <mxGeometry width="60" relative="1" as="geometry">
                        <mxPoint x="55" y="460" as="sourcePoint"/>
                        <mxPoint x="270" y="1530" as="targetPoint"/>
                    </mxGeometry>
                </mxCell>
                <mxCell id="116" value="http:GET:subnets" style="html=1;verticalAlign=bottom;startArrow=oval;startFill=1;endArrow=block;startSize=8;" parent="1" edge="1">
                    <mxGeometry width="60" relative="1" as="geometry">
                        <mxPoint x="7" y="1597" as="sourcePoint"/>
                        <mxPoint x="280" y="1597" as="targetPoint"/>
                    </mxGeometry>
                </mxCell>
                <mxCell id="118" value="http:GET:ports" style="html=1;verticalAlign=bottom;startArrow=oval;startFill=1;endArrow=block;startSize=8;entryX=-0.15;entryY=0.245;entryDx=0;entryDy=0;entryPerimeter=0;" parent="1" target="112" edge="1">
                    <mxGeometry x="-0.0809" y="2" width="60" relative="1" as="geometry">
                        <mxPoint x="10" y="1499" as="sourcePoint"/>
                        <mxPoint x="280" y="1481" as="targetPoint"/>
                        <mxPoint as="offset"/>
                    </mxGeometry>
                </mxCell>
                <mxCell id="110" value="http:POST:initialize_connection" style="html=1;verticalAlign=bottom;startArrow=oval;startFill=1;endArrow=block;startSize=8;" parent="1" target="114" edge="1">
                    <mxGeometry width="60" relative="1" as="geometry">
                        <mxPoint x="5" y="1640" as="sourcePoint"/>
                        <mxPoint x="60" y="1600" as="targetPoint"/>
                    </mxGeometry>
                </mxCell>
                <mxCell id="109" value="http:GET:dhcp_ports" style="html=1;verticalAlign=bottom;startArrow=oval;startFill=1;endArrow=block;startSize=8;entryX=0.15;entryY=0.981;entryDx=0;entryDy=0;entryPerimeter=0;exitX=1.4;exitY=0.872;exitDx=0;exitDy=0;exitPerimeter=0;" parent="1" source="107" target="112" edge="1">
                    <mxGeometry width="60" relative="1" as="geometry">
                        <mxPoint y="1575" as="sourcePoint"/>
                        <mxPoint x="60" y="1560" as="targetPoint"/>
                    </mxGeometry>
                </mxCell>
                <mxCell id="108" value="http:GET:ports" style="html=1;verticalAlign=bottom;startArrow=oval;startFill=1;endArrow=block;startSize=8;entryX=-0.15;entryY=0.531;entryDx=0;entryDy=0;entryPerimeter=0;exitX=1.6;exitY=0.483;exitDx=0;exitDy=0;exitPerimeter=0;" parent="1" source="107" target="112" edge="1">
                    <mxGeometry width="60" relative="1" as="geometry">
                        <mxPoint x="10" y="1560" as="sourcePoint"/>
                        <mxPoint x="60" y="1500" as="targetPoint"/>
                    </mxGeometry>
                </mxCell>
                <mxCell id="119" value="http:PUT:ports" style="html=1;verticalAlign=bottom;startArrow=oval;startFill=1;endArrow=block;startSize=8;" parent="1" edge="1">
                    <mxGeometry width="60" relative="1" as="geometry">
                        <mxPoint x="10" y="1521" as="sourcePoint"/>
                        <mxPoint x="280" y="1521" as="targetPoint"/>
                    </mxGeometry>
                </mxCell>
                <mxCell id="117" value="http:GET:extensions" style="html=1;verticalAlign=bottom;startArrow=oval;startFill=1;endArrow=block;startSize=8;entryX=-0.05;entryY=0.1;entryDx=0;entryDy=0;entryPerimeter=0;" parent="1" target="112" edge="1">
                    <mxGeometry width="60" relative="1" as="geometry">
                        <mxPoint x="10" y="1476" as="sourcePoint"/>
                        <mxPoint x="60" y="1470" as="targetPoint"/>
                    </mxGeometry>
                </mxCell>
                <mxCell id="125" value="rpc:response" style="html=1;verticalAlign=bottom;endArrow=open;dashed=1;endSize=8;entryX=1;entryY=0.833;entryDx=0;entryDy=0;entryPerimeter=0;" parent="1" target="3" edge="1">
                    <mxGeometry relative="1" as="geometry">
                        <mxPoint x="-65" y="254" as="targetPoint"/>
                        <mxPoint x="150" y="230" as="sourcePoint"/>
                    </mxGeometry>
                </mxCell>
            </root>
        </mxGraphModel>
    </diagram>
</mxfile>